<svg xmlns="http://www.w3.org/2000/svg" xmlns:xlink="http://www.w3.org/1999/xlink"><symbol id="icon-close" viewBox="0 0 20 20"><path d="M.293 18.291a1 1 0 101.414 1.414L10 11.413l8.292 8.292a1 1 0 101.414-1.414l-8.292-8.292 8.292-8.292A1 1 0 1018.291.293L9.999 8.585 1.707.293A1 1 0 10.293 1.707L8.585 10 .293 18.291z"/></symbol><symbol id="icon-fb" viewBox="0 0 30 30">
<path fill-rule="evenodd" clip-rule="evenodd" d="M30 15.0001C30 6.71625 23.2847 0 14.9999 0C6.71532 0 0 6.71625 0 15.0001C0 23.2847 6.71522 30 14.9999 30C23.2847 30 30 23.2848 30 15.0001ZM18.7594 10.3266H16.8263C16.3059 10.3266 15.9403 10.7672 15.9403 11.3166V12.1782H18.7012L18.2541 14.9747H15.9394V22.4709H13.1137V14.9747H11.2388V12.1782H13.1137V10.7522H13.1194C13.1691 9.12656 13.7335 7.57877 16.4869 7.48125V7.47095H18.7594V10.3266Z" fill="#F8FDFF"/>
</symbol><symbol id="icon-odnkl" viewBox="0 0 30 30">
<path d="M15.1711 12.6428C16.3282 12.6428 17.2282 11.6785 17.2068 10.6285C17.2282 9.57849 16.3496 8.59277 15.1925 8.59277C14.0782 8.59277 13.1568 9.49277 13.1568 10.6071C13.1568 11.7213 14.0568 12.6428 15.1711 12.6428Z" fill="#F8FDFF"/>
<path d="M15 0C6.72856 0 0 6.72857 0 15C0 23.2929 6.72856 30 15 30C23.2928 30 29.9999 23.2714 29.9999 15C30.0214 6.72857 23.2928 0 15 0ZM15.2143 5.67857C17.9143 5.67857 20.1428 7.90714 20.1214 10.6286C20.1214 13.3714 17.8714 15.5786 15.1285 15.5357C12.4285 15.4929 10.2643 13.2857 10.2643 10.6071C10.2643 7.88571 12.4714 5.67857 15.2143 5.67857ZM20.7214 17.25C20.7214 17.2929 20.7 17.3143 20.7 17.3571C20.6357 17.7857 20.4214 18.1286 20.0571 18.3643C19.8214 18.5143 19.5643 18.6643 19.3071 18.7929C18.6643 19.1143 17.9785 19.3714 17.2714 19.5429C17.1857 19.5643 17.1857 19.5643 17.25 19.6286C17.6357 20.0143 18.0428 20.4214 18.4285 20.8071C18.9214 21.3 19.4357 21.8143 19.9285 22.3071C20.6357 23.0143 20.4428 24.1929 19.5428 24.6214C19.3928 24.7071 19.2214 24.7286 19.05 24.7714C18.9643 24.7714 18.8571 24.7714 18.7714 24.7714C18.75 24.7714 18.7285 24.7714 18.7285 24.75C18.3857 24.7071 18.1071 24.5357 17.85 24.3C16.9928 23.4429 16.1143 22.5643 15.2571 21.7071C15.1928 21.6429 15.1928 21.6429 15.1285 21.7071C14.25 22.5857 13.3928 23.4429 12.5143 24.3214C12.3643 24.4714 12.2143 24.5786 12.0214 24.6643C11.8928 24.7286 11.7428 24.75 11.6143 24.7714C11.5286 24.7714 11.4428 24.7714 11.3357 24.7714C11.2928 24.7714 11.2714 24.75 11.2286 24.75C10.65 24.6429 10.2643 24.3214 10.0928 23.7643C9.92141 23.2071 10.05 22.7143 10.4571 22.3071C10.8214 21.9429 11.1643 21.6 11.5286 21.2357C12.0643 20.7 12.6 20.1643 13.1143 19.65C13.1785 19.5857 13.1785 19.5857 13.0928 19.5643C13.0714 19.5643 13.0285 19.5429 13.0071 19.5429C12.0428 19.3071 11.1643 18.9214 10.3286 18.4071C9.8357 18.0857 9.59998 17.6143 9.66427 17.0357C9.77141 15.9643 10.9714 15.3857 11.8714 15.9643C12.0428 16.0714 12.1928 16.1571 12.3857 16.2429C13.3714 16.7357 14.4214 16.95 15.5143 16.8857C16.05 16.8643 16.5857 16.7571 17.1214 16.5857C17.6357 16.4143 18.0857 16.1786 18.5571 15.9214C19.3285 15.4714 20.3357 15.8357 20.6357 16.6714C20.6785 16.8 20.7 16.9071 20.7214 17.0357C20.7214 17.1 20.7214 17.1643 20.7214 17.25Z" fill="#F8FDFF"/>
</symbol><symbol id="icon-vk" viewBox="0 0 30 30">
<path d="M21.617 17.4544C20.3818 16.2726 20.2935 16.2726 21.3523 14.9091C22.6758 13.1819 24.4405 11.0002 22.8523 11.0002H19.9406C19.4112 11.0002 19.323 11.3638 19.1465 11.8184C18.4406 13.5455 17.0289 15.8181 16.4995 15.4545C15.9701 15.0909 16.2348 13.7273 16.2348 11.5457C16.323 11.2729 16.2348 11.0002 16.0583 10.8184C15.8819 10.6366 15.6172 10.4548 15.3525 10.4548C14.9113 10.3639 14.4702 10.273 14.029 10.273C12.3526 10.273 11.2056 11.0002 11.8232 11.0911C12.9702 11.2729 12.882 13.8182 12.6173 14.9091C12.1761 16.8181 10.4115 13.4546 9.61736 11.7275C9.52913 11.2729 9.1762 11.0002 8.73504 11.0002H6.44099C6.08806 11.0002 5.82336 11.0911 5.82336 11.3638C5.82336 11.8184 8.02917 16.2726 10.0585 18.5452C12.0879 20.7269 14.1172 20.5451 15.529 20.5451C15.7054 20.5451 15.8819 20.4542 15.9701 20.3633C16.0583 20.2724 16.1466 20.0906 16.1466 19.9088C16.1466 18.4543 16.676 17.7271 17.6465 18.727C18.7053 19.8179 18.97 20.5451 20.2935 20.5451H22.6758C23.2934 20.5451 23.4699 20.3633 23.4699 20.0906C23.5581 19.4543 22.4993 18.2725 21.617 17.4544ZM15.3525 0.000910576C23.5581 0.182718 30.0873 7.00048 29.9991 15.2727C29.9109 23.5449 23.117 30.09 14.9113 29.9991C6.61745 29.9082 0 23.2722 0 15C0.0882327 6.63687 6.97038 -0.0899929 15.3525 0.000910576Z" fill="#F8FDFF"/>
</symbol><symbol id="logo" viewBox="0 0 55 55">
  <path d="M33.9167 14.6664C35.1102 14.6664 36.1185 15.4355 36.498 16.4997H46.002C46.3815 15.4355 47.3899 14.6664 48.5834 14.6664C50.0995 14.6664 51.3334 15.9002 51.3334 17.4164C51.3334 18.9325 50.0995 20.1663 48.5834 20.1663C47.3899 20.1663 46.3815 19.3973 46.002 18.333H36.4971C36.1176 19.3973 35.1093 20.1663 33.9158 20.1663C32.3996 20.1663 31.1658 18.9325 31.1658 17.4164C31.1658 15.9002 32.4005 14.6664 33.9167 14.6664ZM48.5834 18.333C49.0884 18.333 49.5 17.9224 49.5 17.4164C49.5 16.9104 49.0884 16.4997 48.5834 16.4997C48.0783 16.4997 47.6667 16.9104 47.6667 17.4164C47.6667 17.9224 48.0783 18.333 48.5834 18.333ZM33.9167 18.333C34.4218 18.333 34.8334 17.9224 34.8334 17.4164C34.8334 16.9104 34.4218 16.4997 33.9167 16.4997C33.4116 16.4997 33 16.9104 33 17.4164C33 17.9224 33.4116 18.333 33.9167 18.333Z" fill="#00B2FF"/>
  <path d="M26.5834 20.335V14.6664C26.5834 14.4226 26.6796 14.1898 26.8519 14.0184L30.5186 10.3517C30.69 10.1794 30.9238 10.0832 31.1667 10.0832H34.0854C34.4649 9.01893 35.4732 8.24986 36.6667 8.24986C38.1829 8.24986 39.4167 9.48368 39.4167 10.9998C39.4167 12.516 38.1829 13.7498 36.6667 13.7498C35.4732 13.7498 34.4649 12.9807 34.0854 11.9165H31.5462L28.4167 15.0459V20.335C29.4809 20.7145 30.25 21.7228 30.25 22.9163C30.25 24.4324 29.0162 25.6662 27.5 25.6662C25.9839 25.6662 24.75 24.4324 24.75 22.9163C24.75 21.7228 25.5191 20.7145 26.5834 20.335ZM36.6667 11.9165C37.1718 11.9165 37.5834 11.5058 37.5834 10.9998C37.5834 10.4938 37.1718 10.0832 36.6667 10.0832C36.1616 10.0832 35.75 10.4938 35.75 10.9998C35.75 11.5058 36.1616 11.9165 36.6667 11.9165ZM27.5 23.8329C28.0051 23.8329 28.4167 23.4223 28.4167 22.9163C28.4167 22.4103 28.0051 21.9996 27.5 21.9996C26.9949 21.9996 26.5834 22.4103 26.5834 22.9163C26.5834 23.4223 26.9949 23.8329 27.5 23.8329Z" fill="#00B2FF"/>
  <path d="M10.0833 23.8329C10.5068 23.8329 10.9028 23.9365 11.2613 24.1089L12.8333 22.5368V13.7498C12.8333 13.5059 12.9296 13.2731 13.1019 13.1017L22.2759 3.92785C22.1036 3.56944 22 3.17345 22 2.74995C22 1.23381 23.2338 0 24.75 0C26.2662 0 27.5 1.23381 27.5 2.74995C27.5 4.2661 26.2662 5.49991 24.75 5.49991C24.3265 5.49991 23.9305 5.39633 23.5721 5.224L14.6667 14.1293V22.9163C14.6667 23.1601 14.5704 23.3929 14.3981 23.5644L12.5574 25.405C12.7298 25.7634 12.8333 26.1594 12.8333 26.5829C12.8333 28.099 11.5995 29.3328 10.0833 29.3328C8.56717 29.3328 7.33334 28.099 7.33334 26.5829C7.33334 25.0667 8.56717 23.8329 10.0833 23.8329ZM24.75 3.66661C25.2551 3.66661 25.6667 3.25595 25.6667 2.74995C25.6667 2.24396 25.2551 1.8333 24.75 1.8333C24.2449 1.8333 23.8333 2.24396 23.8333 2.74995C23.8333 3.25595 24.2449 3.66661 24.75 3.66661ZM10.0833 27.4995C10.5884 27.4995 11 27.0889 11 26.5829C11 26.0769 10.5884 25.6662 10.0833 25.6662C9.57826 25.6662 9.16668 26.0769 9.16668 26.5829C9.16668 27.0889 9.57826 27.4995 10.0833 27.4995Z" fill="#00B2FF"/>
  <path d="M1.83336 13.0018V9.16651C1.83336 8.92268 1.92961 8.68986 2.10195 8.51844L8.51861 2.10188C8.69003 1.92955 8.92378 1.8333 9.1667 1.8333H13.9187C14.2982 0.769071 15.3065 0 16.5 0C18.0162 0 19.25 1.23381 19.25 2.74995C19.25 4.2661 18.0162 5.49991 16.5 5.49991C15.3065 5.49991 14.2982 4.73084 13.9187 3.66661H9.5462L3.6667 9.54601V13.0018C4.73095 13.3813 5.50003 14.3896 5.50003 15.5831C5.50003 17.0992 4.2662 18.333 2.75003 18.333C1.23386 18.333 3.05176e-05 17.0992 3.05176e-05 15.5831C3.05176e-05 14.3896 0.769114 13.3813 1.83336 13.0018ZM16.5 3.66661C17.0051 3.66661 17.4167 3.25595 17.4167 2.74995C17.4167 2.24396 17.0051 1.8333 16.5 1.8333C15.9949 1.8333 15.5834 2.24396 15.5834 2.74995C15.5834 3.25595 15.9949 3.66661 16.5 3.66661ZM2.75003 16.4997C3.25511 16.4997 3.6667 16.0891 3.6667 15.5831C3.6667 15.0771 3.25511 14.6664 2.75003 14.6664C2.24495 14.6664 1.83336 15.0771 1.83336 15.5831C1.83336 16.0891 2.24495 16.4997 2.75003 16.4997Z" fill="#00B2FF"/>
  <path d="M14.6658 49.6688V36.4974C13.6024 36.1179 12.8334 35.1096 12.8334 33.9161C12.8334 32.4 14.0672 31.1662 15.5834 31.1662C16.7769 31.1662 17.7852 31.9352 18.1647 32.9995H27.6687C28.0482 31.9352 29.0565 31.1662 30.25 31.1662C31.4435 31.1662 32.4519 31.9352 32.8314 32.9995H38.1205L41.5259 29.5941C41.3536 29.2357 41.25 28.8397 41.25 28.4162C41.25 26.9001 42.4839 25.6663 44 25.6663C45.5162 25.6663 46.75 26.9001 46.75 28.4162C46.75 29.9324 45.5162 31.1662 44 31.1662C43.5765 31.1662 43.1805 31.0626 42.8221 30.8903L39.1481 34.5642C38.9767 34.7365 38.7429 34.8328 38.5 34.8328H32.8314C32.4519 35.897 31.4435 36.6661 30.25 36.6661C29.0565 36.6661 28.0482 35.897 27.6687 34.8328H18.1638C17.8869 35.6092 17.2755 36.2206 16.4991 36.4974V49.6688C17.5634 50.0483 18.3324 51.0566 18.3324 52.2501C18.3324 53.7662 17.0986 55 15.5824 55C14.0663 55 12.8324 53.7662 12.8324 52.2501C12.8324 51.0566 13.6015 50.0483 14.6658 49.6688ZM44 29.3329C44.5051 29.3329 44.9167 28.9222 44.9167 28.4162C44.9167 27.9102 44.5051 27.4996 44 27.4996C43.4949 27.4996 43.0834 27.9102 43.0834 28.4162C43.0834 28.9222 43.4949 29.3329 44 29.3329ZM30.25 34.8328C30.7551 34.8328 31.1667 34.4221 31.1667 33.9161C31.1667 33.4101 30.7551 32.9995 30.25 32.9995C29.7449 32.9995 29.3334 33.4101 29.3334 33.9161C29.3334 34.4221 29.7449 34.8328 30.25 34.8328ZM15.5834 53.1658C16.0884 53.1658 16.5 52.7551 16.5 52.2492C16.5 51.7432 16.0884 51.3325 15.5834 51.3325C15.0783 51.3325 14.6667 51.7432 14.6667 52.2492C14.6667 52.7551 15.0783 53.1658 15.5834 53.1658ZM15.5834 34.8328C16.0884 34.8328 16.5 34.4221 16.5 33.9161C16.5 33.4101 16.0884 32.9995 15.5834 32.9995C15.0783 32.9995 14.6667 33.4101 14.6667 33.9161C14.6667 34.4221 15.0783 34.8328 15.5834 34.8328Z" fill="#00B2FF"/>
  <path d="M19.25 18.5017V15.5831C19.25 15.3392 19.3463 15.1064 19.5186 14.935L30.5259 3.92785C30.3536 3.56944 30.25 3.17345 30.25 2.74995C30.25 1.23381 31.4838 0 33 0C34.1935 0 35.2018 0.769071 35.5813 1.8333H39.4167C39.9227 1.8333 40.3333 2.24305 40.3333 2.74995V5.12041L43.7388 8.52577C44.0972 8.35344 44.4932 8.24986 44.9167 8.24986C46.4328 8.24986 47.6667 9.48368 47.6667 10.9998C47.6667 12.516 46.4328 13.7498 44.9167 13.7498C43.4005 13.7498 42.1667 12.516 42.1667 10.9998C42.1667 10.5763 42.2703 10.1803 42.4426 9.82192L38.7686 6.14798C38.5963 5.97657 38.5 5.74374 38.5 5.49991V3.66661H35.5813C35.2018 4.73084 34.1935 5.49991 33 5.49991C32.5765 5.49991 32.1805 5.39633 31.8221 5.224L21.0833 15.9626V18.5017C22.1476 18.8812 22.9167 19.8895 22.9167 21.083C22.9167 22.5991 21.6828 23.8329 20.1667 23.8329C18.6505 23.8329 17.4167 22.5991 17.4167 21.083C17.4167 19.8895 18.1858 18.8812 19.25 18.5017ZM44.9167 11.9165C45.4218 11.9165 45.8333 11.5058 45.8333 10.9998C45.8333 10.4938 45.4218 10.0832 44.9167 10.0832C44.4116 10.0832 44 10.4938 44 10.9998C44 11.5058 44.4116 11.9165 44.9167 11.9165ZM33 3.66661C33.5051 3.66661 33.9167 3.25595 33.9167 2.74995C33.9167 2.24396 33.5051 1.8333 33 1.8333C32.4949 1.8333 32.0833 2.24396 32.0833 2.74995C32.0833 3.25595 32.4949 3.66661 33 3.66661ZM20.1667 21.9996C20.6718 21.9996 21.0833 21.589 21.0833 21.083C21.0833 20.577 20.6718 20.1663 20.1667 20.1663C19.6616 20.1663 19.25 20.577 19.25 21.083C19.25 21.589 19.6616 21.9996 20.1667 21.9996Z" fill="#00B2FF"/>
  <path d="M22 25.6662C23.1935 25.6662 24.2018 26.4353 24.5813 27.4995H35.3705L40.6019 22.2682C40.7733 22.0959 41.0071 21.9996 41.25 21.9996H50.9538L53.1667 19.7868V12.296L46.0946 5.224C45.7362 5.39633 45.3402 5.49991 44.9167 5.49991C43.4005 5.49991 42.1667 4.2661 42.1667 2.74995C42.1667 1.23381 43.4005 0 44.9167 0C46.4328 0 47.6667 1.23381 47.6667 2.74995C47.6667 3.17345 47.5631 3.56944 47.3907 3.92785L54.7314 11.2684C54.9037 11.4398 55 11.6726 55 11.9165V20.1663C55 20.4102 54.9037 20.643 54.7314 20.8144L51.9814 23.5644C51.81 23.7367 51.5762 23.8329 51.3333 23.8329H41.6295L36.3981 29.0643C36.2267 29.2366 35.9929 29.3328 35.75 29.3328H24.5813C24.2018 30.3971 23.1935 31.1661 22 31.1661C20.4838 31.1661 19.25 29.9323 19.25 28.4162C19.25 26.9001 20.4838 25.6662 22 25.6662ZM44.9167 1.8333C44.4116 1.8333 44 2.24396 44 2.74995C44 3.25595 44.4116 3.66661 44.9167 3.66661C45.4217 3.66661 45.8333 3.25595 45.8333 2.74995C45.8333 2.24396 45.4217 1.8333 44.9167 1.8333ZM22 29.3328C22.5051 29.3328 22.9167 28.9222 22.9167 28.4162C22.9167 27.9102 22.5051 27.4995 22 27.4995C21.4949 27.4995 21.0833 27.9102 21.0833 28.4162C21.0833 28.9222 21.4949 29.3328 22 29.3328Z" fill="#00B2FF"/>
  <path d="M2.75001 21.9996C3.17351 21.9996 3.56951 22.1032 3.92793 22.2755L7.33334 18.8702V13.5811C6.26909 13.2016 5.50001 12.1933 5.50001 10.9998C5.50001 9.48368 6.73384 8.24986 8.25001 8.24986C9.76618 8.24986 11 9.48368 11 10.9998C11 12.1933 10.2309 13.2016 9.16668 13.5811V19.2497C9.16668 19.4935 9.07043 19.7263 8.89809 19.8978L5.2241 23.5717C5.39643 23.9301 5.50001 24.3261 5.50001 24.7496C5.50001 25.9431 4.73093 26.9514 3.66668 27.3309V28.0367L10.7314 35.1013C10.9038 35.2727 11 35.5056 11 35.7494V36.8347C12.0643 37.2142 12.8333 38.2225 12.8333 39.416C12.8333 40.6095 12.0643 41.6178 11 41.9973V44.1688C12.0643 44.5483 12.8333 45.5567 12.8333 46.7501C12.8333 48.2663 11.5995 49.5001 10.0833 49.5001C8.56718 49.5001 7.33334 48.2663 7.33334 46.7501C7.33334 45.5567 8.10243 44.5483 9.16668 44.1688V41.9973C8.10243 41.6178 7.33334 40.6095 7.33334 39.416C7.33334 38.2225 8.10243 37.2142 9.16668 36.8347V36.1289L2.10193 29.0643C1.92959 28.8929 1.83334 28.66 1.83334 28.4162V27.3309C0.769094 26.9514 1.14441e-05 25.9431 1.14441e-05 24.7496C1.14441e-05 23.2334 1.23384 21.9996 2.75001 21.9996ZM8.25001 11.9165C8.75509 11.9165 9.16668 11.5058 9.16668 10.9998C9.16668 10.4938 8.75509 10.0832 8.25001 10.0832C7.74493 10.0832 7.33334 10.4938 7.33334 10.9998C7.33334 11.5058 7.74493 11.9165 8.25001 11.9165ZM10.0833 47.6659C10.5884 47.6659 11 47.2552 11 46.7492C11 46.2432 10.5884 45.8326 10.0833 45.8326C9.57826 45.8326 9.16668 46.2432 9.16668 46.7492C9.16668 47.2552 9.57826 47.6659 10.0833 47.6659ZM10.0833 40.3327C10.5884 40.3327 11 39.922 11 39.416C11 38.91 10.5884 38.4994 10.0833 38.4994C9.57826 38.4994 9.16668 38.91 9.16668 39.416C9.16668 39.922 9.57826 40.3327 10.0833 40.3327ZM2.75001 25.6662C3.25509 25.6662 3.66668 25.2556 3.66668 24.7496C3.66668 24.2436 3.25509 23.8329 2.75001 23.8329C2.24493 23.8329 1.83334 24.2436 1.83334 24.7496C1.83334 25.2556 2.24493 25.6662 2.75001 25.6662Z" fill="#00B2FF"/>
</symbol><symbol id="stopwatch" viewBox="0 0 35 35">
  <path d="M3.84798 11.6622L2.05404 10.1904C1.07943 9.39114 1.07943 8.09017 2.05404 7.29042C3.02864 6.49094 4.61458 6.49094 5.58919 7.29042L7.50456 8.86162C9.5026 7.72007 11.7803 6.92993 14.1667 6.55075V4.51172H12.5C12.0397 4.51172 11.6667 4.2057 11.6667 3.82812V2.05078C11.6667 0.919914 12.7881 0 14.1667 0H20.8333C22.2119 0 23.3333 0.919914 23.3333 2.05078V3.82812C23.3333 4.2057 22.9603 4.51172 22.5 4.51172H20.8333V6.55075C23.2194 6.92966 25.4974 7.72007 27.4954 8.86162L29.4108 7.29042C30.3851 6.49094 31.971 6.49094 32.946 7.29042C33.9206 8.0899 33.9206 9.39087 32.946 10.1904L31.152 11.6622C33.6387 14.203 35 17.3678 35 20.6445C35 28.5601 27.1494 35 17.5 35C7.85059 35 0 28.5601 0 20.6445C0 17.3678 1.36133 14.203 3.84798 11.6622ZM4.41081 8.25706C4.08561 7.99057 3.55729 7.99084 3.23242 8.25706C2.90788 8.52356 2.90788 8.95721 3.23242 9.22371L4.95443 10.636C5.34245 10.3092 5.74935 9.99756 6.17253 9.70249L4.41081 8.25706ZM21.6667 2.05078C21.6667 1.67374 21.293 1.36719 20.8333 1.36719H14.1667C13.707 1.36719 13.3333 1.67374 13.3333 2.05078V3.14453H21.6667V2.05078ZM15.8333 4.51172V6.35368C16.9378 6.26877 18.0618 6.26877 19.1667 6.35368V4.51172H15.8333ZM31.7676 8.25706C31.4427 7.99084 30.9141 7.99057 30.5892 8.25706L28.8275 9.70249C29.2507 9.99756 29.6576 10.3092 30.0456 10.636L31.7676 9.22371C32.0921 8.95721 32.0921 8.52356 31.7676 8.25706ZM17.5 33.6328C26.2305 33.6328 33.3333 27.8062 33.3333 20.6445C33.3333 17.4853 31.9352 14.4415 29.3968 12.0732C28.6976 11.4208 27.9173 10.8248 27.0778 10.3009C24.974 8.98766 22.4837 8.12328 19.8763 7.80098C19.096 7.70512 18.2965 7.65625 17.5 7.65625C16.7034 7.65625 15.904 7.70512 15.124 7.80098C12.5163 8.12328 10.026 8.98766 7.92188 10.3009C7.08268 10.8248 6.30241 11.4208 5.60319 12.0732C3.06478 14.4415 1.66666 17.4853 1.66666 20.6445C1.66666 27.8062 8.76953 33.6328 17.5 33.6328Z" fill="#00B2FF"/>
  <path d="M17.5 22.6953C16.1214 22.6953 15 21.7754 15 20.6445C15 19.7535 15.6966 18.9935 16.6667 18.7112V13.8086C16.6667 13.431 17.0397 13.125 17.5 13.125C17.9603 13.125 18.3334 13.431 18.3334 13.8086V18.7112C19.3034 18.9935 20 19.7535 20 20.6445C20 21.7754 18.8786 22.6953 17.5 22.6953ZM17.5 19.9609C17.0404 19.9609 16.6667 20.2675 16.6667 20.6445C16.6667 21.0216 17.0404 21.3281 17.5 21.3281C17.9597 21.3281 18.3334 21.0216 18.3334 20.6445C18.3334 20.2675 17.9597 19.9609 17.5 19.9609Z" fill="#00B2FF"/>
  <path d="M8.62274 13.4326C8.63576 13.42 8.64878 13.4075 8.66343 13.3957C8.67905 13.3826 8.69565 13.3709 8.71225 13.3591C10.181 12.1671 11.9955 11.2851 13.9645 10.8082C14.4063 10.7014 14.8695 10.9081 14.9997 11.2702C15.1299 11.6323 14.8779 12.0125 14.4365 12.1193C12.9776 12.4729 11.6166 13.0838 10.4564 13.8996L11.0186 14.3608C11.3438 14.6278 11.3438 15.0607 11.0186 15.3277C10.8558 15.4612 10.6426 15.528 10.4291 15.528C10.2158 15.528 10.0026 15.4612 9.83986 15.3277L9.27638 14.8655C7.76857 16.3037 6.87306 18.0741 6.69858 19.9609H7.50002C7.9603 19.9609 8.33335 20.2672 8.33335 20.6445C8.33335 21.0221 7.9603 21.3281 7.50002 21.3281H6.69858C6.87306 23.2152 7.76857 24.9853 9.27638 26.4235L9.83986 25.9613C10.1654 25.6945 10.693 25.6945 11.0186 25.9613C11.3441 26.2283 11.3441 26.6612 11.0186 26.9282L10.4551 27.3904C12.2083 28.6273 14.3666 29.3619 16.6667 29.5053V28.8476C16.6667 28.47 17.0397 28.164 17.5 28.164C17.9603 28.164 18.3333 28.47 18.3333 28.8476V29.505C20.6335 29.3619 22.7917 28.6273 24.5449 27.3904L23.9815 26.9282C23.6559 26.6612 23.6559 26.2283 23.9815 25.9613C24.307 25.6945 24.8347 25.6945 25.1602 25.9613L25.7236 26.4235C27.2315 24.9853 28.127 23.2149 28.3014 21.3281H27.5C27.0397 21.3281 26.6667 21.0221 26.6667 20.6445C26.6667 20.2669 27.0397 19.9609 27.5 19.9609H28.3014C28.127 18.0741 27.2315 16.3037 25.7236 14.8655L25.1602 15.3277C24.9974 15.4612 24.7842 15.528 24.571 15.528C24.3574 15.528 24.1442 15.4612 23.9815 15.3277C23.6563 15.0607 23.6563 14.6278 23.9815 14.3608L24.5436 13.8996C23.3835 13.0836 22.0225 12.4729 20.5635 12.1193C20.1221 12.0125 19.8701 11.6323 20.0003 11.2702C20.1305 10.9081 20.5934 10.7017 21.0355 10.8082C23.0042 11.2849 24.818 12.1666 26.2865 13.3581C26.3037 13.3701 26.3207 13.3824 26.3366 13.3955C26.3509 13.4072 26.3636 13.4195 26.3766 13.4318C28.7136 15.3667 30 17.9259 30 20.6445C30 23.3628 28.7136 25.9218 26.3773 27.8564C26.3643 27.869 26.3513 27.8815 26.3366 27.8933C26.3223 27.9053 26.3073 27.9157 26.2923 27.9264C23.9336 29.8431 20.8141 30.8984 17.5 30.8984C14.1862 30.8984 11.0667 29.8434 8.70835 27.9269C8.69305 27.916 8.67775 27.9053 8.66343 27.8933C8.6491 27.8818 8.63641 27.8692 8.62339 27.8572C6.28647 25.9223 5.00002 23.3631 5.00002 20.6445C5.00002 17.9261 6.28647 15.3672 8.62274 13.4326Z" fill="#00B2FF"/>
  <path d="M17.5 11.7578C17.04 11.7578 16.6667 11.4515 16.6667 11.0742C16.6667 10.6969 17.04 10.3906 17.5 10.3906C17.96 10.3906 18.3333 10.6969 18.3333 11.0742C18.3333 11.4515 17.96 11.7578 17.5 11.7578Z" fill="#00B2FF"/>
</symbol></svg>